HIERARCHY
ROOT hip
{
  OFFSET 0 0 0
  CHANNELS 6 Xposition Yposition Zposition Zrotation Yrotation Xrotation
  JOINT abdomen
  {
    OFFSET 0 20.6881 -0.73152
    CHANNELS 3 Zrotation Xrotation Yrotation
    JOINT chest
    {
      OFFSET 0 11.7043 -0.48768
      CHANNELS 3 Zrotation Xrotation Yrotation
      JOINT neck
      {
        OFFSET 0 22.1894 -2.19456
        CHANNELS 3 Zrotation Xrotation Yrotation
        JOINT head
        {
          OFFSET -0.24384 7.07133 1.2192
          CHANNELS 3 Zrotation Xrotation Yrotation
          JOINT leftEye
          {
            OFFSET 4.14528 8.04674 8.04672
            CHANNELS 3 Zrotation Xrotation Yrotation
            End Site
            {
              OFFSET 1 0 0
            }
          }
          JOINT rightEye
          {
            OFFSET -3.6576 8.04674 8.04672
            CHANNELS 3 Zrotation Xrotation Yrotation
            End Site
            {
              OFFSET 1 0 0
            }
          }
        }
      }
      JOINT rCollar
      {
        OFFSET -2.68224 19.2634 -4.8768
        CHANNELS 3 Zrotation Xrotation Yrotation
        JOINT rShldr
        {
          OFFSET -8.77824 -1.95073 1.46304
          CHANNELS 3 Zrotation Xrotation Yrotation
          JOINT rForeArm
          {
            OFFSET -28.1742 -1.7115 0.48768
            CHANNELS 3 Zrotation Xrotation Yrotation
            JOINT rHand
            {
              OFFSET -22.5879 0.773209 7.07136
              CHANNELS 3 Zrotation Xrotation Yrotation
              JOINT rThumb1
              {
                OFFSET -1.2192 -0.487915 3.41376
                CHANNELS 3 Zrotation Xrotation Yrotation
                JOINT rThumb2
                {
                  OFFSET -3.37035 -0.52449 3.41376
                  CHANNELS 3 Zrotation Xrotation Yrotation
                  End Site
                  {
                    OFFSET -1.78271 -1.18214 1.43049
                  }
                }
              }
              JOINT rIndex1
              {
                OFFSET -7.75947 0.938293 5.60832
                CHANNELS 3 Zrotation Xrotation Yrotation
                JOINT rIndex2
                {
                  OFFSET -2.54057 -0.884171 1.56538
                  CHANNELS 3 Zrotation Xrotation Yrotation
                  End Site
                  {
                    OFFSET -1.62519 -0.234802 1.16502
                  }
                }
              }
              JOINT rMid1
              {
                OFFSET -8.24714 1.18213 3.41376
                CHANNELS 3 Zrotation Xrotation Yrotation
                JOINT rMid2
                {
                  OFFSET -3.10165 -0.590103 1.0647
                  CHANNELS 3 Zrotation Xrotation Yrotation
                  End Site
                  {
                    OFFSET -2.48547 -0.328903 0.83742
                  }
                }
              }
              JOINT rRing1
              {
                OFFSET -8.82822 0.546677 1.51678
                CHANNELS 3 Zrotation Xrotation Yrotation
                JOINT rRing2
                {
                  OFFSET -2.60934 -0.819778 -0.0198488
                  CHANNELS 3 Zrotation Xrotation Yrotation
                  End Site
                  {
                    OFFSET -2.33842 -0.294052 0.168128
                  }
                }
              }
              JOINT rPinky1
              {
                OFFSET -8.27202 -0.0477905 -0.4584
                CHANNELS 3 Zrotation Xrotation Yrotation
                JOINT rPinky2
                {
                  OFFSET -1.82734 -0.647385 -0.700984
                  CHANNELS 3 Zrotation Xrotation Yrotation
                  End Site
                  {
                    OFFSET -1.69225 -0.51767 -0.607171
                  }
                }
              }
            }
          }
        }
      }
      JOINT lCollar
      {
        OFFSET 2.68224 19.2634 -4.8768
        CHANNELS 3 Zrotation Xrotation Yrotation
        JOINT lShldr
        {
          OFFSET 8.77824 -1.95073 1.46304
          CHANNELS 3 Zrotation Xrotation Yrotation
          JOINT lForeArm
          {
            OFFSET 28.1742 -1.7115 0.48768
            CHANNELS 3 Zrotation Xrotation Yrotation
            JOINT lHand
            {
              OFFSET 22.5879 0.773209 7.07136
              CHANNELS 3 Zrotation Xrotation Yrotation
              JOINT lThumb1
              {
                OFFSET 1.2192 -0.487915 3.41376
                CHANNELS 3 Zrotation Xrotation Yrotation
                JOINT lThumb2
                {
                  OFFSET 3.37035 -0.52449 3.41376
                  CHANNELS 3 Zrotation Xrotation Yrotation
                  End Site
                  {
                    OFFSET 1.78271 -1.18214 1.43049
                  }
                }
              }
              JOINT lIndex1
              {
                OFFSET 7.75947 0.938293 5.60832
                CHANNELS 3 Zrotation Xrotation Yrotation
                JOINT lIndex2
                {
                  OFFSET 2.54057 -0.884171 1.56538
                  CHANNELS 3 Zrotation Xrotation Yrotation
                  End Site
                  {
                    OFFSET 1.62519 -0.234802 1.16502
                  }
                }
              }
              JOINT lMid1
              {
                OFFSET 8.24714 1.18213 3.41376
                CHANNELS 3 Zrotation Xrotation Yrotation
                JOINT lMid2
                {
                  OFFSET 3.10165 -0.590103 1.0647
                  CHANNELS 3 Zrotation Xrotation Yrotation
                  End Site
                  {
                    OFFSET 2.48547 -0.328903 0.83742
                  }
                }
              }
              JOINT lRing1
              {
                OFFSET 8.82822 0.546677 1.51678
                CHANNELS 3 Zrotation Xrotation Yrotation
                JOINT lRing2
                {
                  OFFSET 2.60934 -0.819778 -0.0198488
                  CHANNELS 3 Zrotation Xrotation Yrotation
                  End Site
                  {
                    OFFSET 2.33842 -0.294052 0.168128
                  }
                }
              }
              JOINT lPinky1
              {
                OFFSET 8.27202 -0.0477905 -0.4584
                CHANNELS 3 Zrotation Xrotation Yrotation
                JOINT lPinky2
                {
                  OFFSET 1.82734 -0.647385 -0.700984
                  CHANNELS 3 Zrotation Xrotation Yrotation
                  End Site
                  {
                    OFFSET 1.69225 -0.51767 -0.607171
                  }
                }
              }
            }
          }
        }
      }
    }
  }
  JOINT rButtock
  {
    OFFSET -8.77824 4.35084 1.2192
    CHANNELS 3 Zrotation Xrotation Yrotation
    JOINT rThigh
    {
      OFFSET 0 -1.70687 -2.19456
      CHANNELS 3 Zrotation Xrotation Yrotation
      JOINT rShin
      {
        OFFSET 0 -36.8199 0.73152
        CHANNELS 3 Zrotation Xrotation Yrotation
        JOINT rFoot
        {
          OFFSET 0.73152 -45.1104 -5.12064
          CHANNELS 3 Zrotation Xrotation Yrotation
          End Site
          {
            OFFSET -1.1221 -3.69964 12.103
          }
        }
      }
    }
  }
  JOINT lButtock
  {
    OFFSET 8.77824 4.35084 1.2192
    CHANNELS 3 Zrotation Xrotation Yrotation
    JOINT lThigh
    {
      OFFSET 0 -1.70687 -2.19456
      CHANNELS 3 Zrotation Xrotation Yrotation
      JOINT lShin
      {
        OFFSET 0 -36.8199 0.73152
        CHANNELS 3 Zrotation Xrotation Yrotation
        JOINT lFoot
        {
          OFFSET -0.73152 -45.1104 -5.12064
          CHANNELS 3 Zrotation Xrotation Yrotation
          End Site
          {
            OFFSET 1.1221 -3.69964 12.103
          }
        }
      }
    }
  }
}
MOTION
Frames:	9
Frame Time:	0.03333
0.0 0.0 0.0 0.0 0.0 0.0 0.0 0.0 0.0 0.0 0.0 0.0 0.0 0.0 0.0 0.0 0.0 0.0 0.0 0.0 0.0 0.0 0.0 0.0 0.0 0.0 0.0 0.0 0.0 0.0 0.0 0.0 0.0 0.0 0.0 0.0 0.0 0.0 0.0 0.0 0.0 0.0 0.0 0.0 0.0 0.0 0.0 0.0 0.0 0.0 0.0 0.0 0.0 0.0 0.0 0.0 0.0 0.0 0.0 0.0 0.0 0.0 0.0 0.0 0.0 0.0 0.0 0.0 0.0 0.0 0.0 0.0 0.0 0.0 0.0 0.0 0.0 0.0 0.0 0.0 0.0 0.0 0.0 0.0 0.0 0.0 0.0 0.0 0.0 0.0 0.0 0.0 0.0 0.0 0.0 0.0 0.0 0.0 0.0 0.0 0.0 0.0 0.0 0.0 0.0 0.0 0.0 0.0 0.0 0.0 0.0 0.0 0.0 0.0 0.0 0.0 0.0 0.0 0.0 0.0 0.0 0.0 0.0 0.0 0.0 0.0 0.0 0.0 0.0 0.0 0.0 0.0
0.5481 51.57469999999999 0.5841 1.356809 20.789254 -0.767243 0.282174 0.766322 -164.594572 12.240834 -0.190916 -85.510219 0.828177 2.489639 -75.767813 55.817292 -22.012056 70.400113 55.431408 -0.483998 -0.921252 -126.989275 29.677288 55.95886 94.701846 -28.968845 17.969777 -3.315283 -13.753519 -5.211538 -52.858692 -42.811129 -133.426489 108.88912 -31.246916 86.907504 -4.467127 -4.963617 -106.177457 171.854 30.9776 -75.523796 158.532332 18.189133 -122.093527 174.894027 42.949263 -61.503556 -7.000424 -2.089914 146.758783 -9.873662 6.151665 -145.621475 39.367576 -5.411699 -18.763658 177.402292 -59.370492 -110.450904 54.556015 31.205491 -25.80962 -131.645671 -43.271412 -48.409629 76.336037 -45.391702 179.267333 -14.39796 0.388296 -2.444738 -16.893848 -5.05 63.821072 -139.420282 -14.908563 156.857437 176.760638 15.654473 -36.835549 -59.835071 17.308476 -60.705078 27.612594 11.722491 103.917266 11.104577 81.31847 177.85143 -147.266041 4.309337 132.04002 -157.46143 36.77838 70.240688 -46.826131 15.274943 -155.715736 -93.181959 38.938102 -88.4428 -118.77771 28.557913 119.113829 -89.427159 -40.501438 -108.770838 69.244858 1.814826 94.505922 14.323376 71.156182 -8.994471 -4.961606 -3.709425 -50.985015 -57.845332 14.266695 97.395091 -61.058081 11.448523 -80.338946 22.921084 55.586363 -165.452553 2.938898 5.626945 144.98024 -34.371939 -41.882236 143.529042
2.4768 71.1696 0.7347 -171.399237 -65.719865 178.163759 -1.018439 -0.080243 0.0 7.482967 6.396257 2.277003 -16.241776 -5.302427 -70.450802 32.87324 2.060165 61.906827 21.952937 -0.268235 -1.382919 -44.780429 -7.558811 18.219507 -139.486272 -5.918196 160.059838 -68.583199 -69.751123 -36.330829 76.147038 2.744669 166.240358 -171.414669 48.211684 127.551596 27.666557 -73.878573 21.233184 -24.64535 -9.549732 -169.961066 -120.169232 31.509314 55.357797 78.128864 66.386206 123.413512 -87.848232 66.579982 83.786917 85.115973 56.467599 -39.256616 25.110101 -1.882173 -7.385415 150.44715 -7.080646 -151.23056 147.370276 -38.743656 114.741725 100.337763 31.246618 174.807834 -74.878084 -79.306958 -24.328609 -14.958908 -3.878243 38.211586 40.615524 4.2372 -165.671138 -91.046708 -51.747907 -65.645039 -173.16488 -5.71748 -84.540142 54.385338 19.706832 -30.114762 72.57315 -21.016197 119.901245 -170.314312 61.617225 88.468486 128.559605 64.268789 -64.466244 -15.460233 15.072415 -52.764713 -3.238608 -40.442344 -87.395631 -149.228728 -6.590159 38.775887 131.653339 -33.678537 94.243958 -164.029267 -57.042548 82.285947 -9.262858 -10.085071 10.273572 1.336178 -17.795167 172.214265 -9.313247 -34.357589 107.737877 93.009673 -3.698569 -41.134491 -3.284194 -10.503554 3.560453 11.062704 -15.327962 -95.455106 -24.001202 -7.468228 81.049046 -66.747052 -29.533536 64.072117
6.6133 66.7558 1.5425 -169.081351 -66.721191 179.881936 -2.070942 7.791217 0.195336 11.591182 -5.136617 7.749867 -22.933755 29.181665 -87.637773 48.803011 27.298446 88.417171 35.831064 4.815564 14.82104 27.52506 4.458587 18.061617 -134.083331 -78.547779 -166.085827 -121.175205 -26.266704 -142.021091 145.28357 -74.955549 -131.149738 -1.717988 34.115302 -9.170693 -35.128563 -6.562056 -11.797569 2.643491 47.182283 94.022066 -93.180898 38.307837 62.731439 177.828024 46.415326 51.561019 14.183449 21.925516 9.401304 -170.722043 69.610604 113.28081 89.390302 80.167044 -89.310935 165.852483 -28.926237 -138.576173 -4.383901 -33.268954 -1.330785 -137.553908 3.154155 -123.701882 -12.341564 0.567376 -2.498565 99.874483 -26.47179 -145.24332 164.556075 -5.436782 69.374059 -4.671861 -1.199349 -2.865674 -113.057486 -49.962715 -54.617919 38.717598 -23.649344 -6.816976 11.111981 -58.684663 12.202446 136.90392 38.236273 170.886942 -79.926036 -82.969108 -88.199888 -150.764841 -3.049721 -176.913657 170.761107 -11.3001 -134.660441 110.289959 39.052698 -70.984879 29.544083 8.525129 13.977281 -64.23501 63.60761 -149.574326 88.490017 55.505203 1.580779 -139.021599 -7.092233 -108.329855 -51.929591 64.444574 146.546249 56.655404 84.789998 -140.198675 -27.031142 -10.744423 -15.491156 59.216379 -33.853956 -108.35942 -72.686954 -45.03903 -85.568517 -142.141466 19.69366 169.569366
10.2493 59.447799999999994 2.0858000000000003 -165.973909 -66.446295 172.447957 1.261625 15.853636 145.984827 -11.584558 1.30162 -150.408316 -32.680055 31.586494 -68.739268 55.249165 31.027665 102.035954 21.38244 -15.993237 -73.30571 31.718713 3.72714 13.067232 -11.148424 32.563212 21.827876 -109.854592 18.355347 117.25858 179.046251 -44.000848 -93.604467 -2.830439 6.111125 -3.224749 -171.331781 -10.439597 77.878096 63.733732 -52.06275 71.933534 -101.467774 33.717624 109.18049 45.588806 -0.800198 -34.720315 -155.058381 -9.885081 123.415854 -147.103017 -16.585814 135.932058 -91.856712 -46.772011 -92.366014 73.322605 36.403416 3.138742 83.096988 39.358101 -62.627094 121.683562 10.484635 -150.23213 -4.00239 45.442072 2.5976 -77.735556 -2.733024 -105.089777 70.978312 -23.03626 -95.72135 -39.083219 -55.11747 -23.110499 -94.868719 -43.345402 -53.331748 65.688668 -15.06529 59.652085 53.033281 -33.012227 -14.591889 -79.359868 2.691255 16.706537 41.687808 50.757773 8.569793 -18.009314 2.016759 -27.517187 91.607312 23.78459 -122.673733 90.744818 -44.276686 -177.809903 51.799137 -28.530455 23.132469 -113.831998 -7.102047 -135.372358 77.63583 59.041005 27.529406 -136.264936 21.721012 -105.912638 -76.297237 51.838556 -172.62904 -115.84422 -37.731465 168.732448 -5.354531 -30.911302 0.0 41.434706 -35.961226 28.122137 66.219951 75.288211 -171.235098 84.326394 -73.108559 174.696723
11.4626 60.46 1.7253999999999998 -163.970887 -65.547949 166.789544 7.902441 22.353747 -2.715839 -3.004782 -9.968183 -0.599921 11.539331 24.078751 83.939159 -30.93762 -12.716937 -43.653741 -3.879069 2.074759 -56.268104 23.361574 3.762787 18.056153 -7.328064 22.924738 17.812887 56.000518 -6.464059 37.872706 150.689774 -13.255466 31.301755 -137.797835 48.752007 124.99062 53.575871 6.781702 -22.010317 -33.16302 -53.601221 8.341876 19.608488 34.203003 -49.390694 -176.807033 -0.630762 110.853881 25.236931 -64.833101 4.24238 -9.950795 -26.410351 -4.665271 74.912318 80.26795 -64.861156 -30.694044 26.366265 -15.316895 -87.617861 -0.410908 -22.222387 55.806985 -1.610807 23.105367 16.843446 63.445189 -9.907074 -84.295318 -20.763836 -113.285613 5.078953 3.760196 -113.432024 -12.657031 9.253211 4.756209 23.554965 -8.001225 -3.652104 -26.69629 5.638797 39.102115 58.688189 -75.877052 167.317184 50.79554 6.098517 -137.899274 9.888553 31.488391 76.377344 167.888383 -5.020054 -53.390164 -128.900321 -48.700819 -132.499657 -97.548736 -36.678255 -164.961626 -137.263942 -13.283609 -159.236882 -158.970393 -9.689523 -117.208215 -47.34945 11.031644 -21.859049 24.61182 -29.255592 13.062655 42.353093 67.36936 68.700615 85.58049 68.740012 -174.301675 -29.836161 38.517541 -64.041792 122.855683 19.65989 77.741244 70.710562 57.706051 16.46173 -153.370984 -12.65567 90.796755
10.1708 60.654399999999995 0.6891 -168.249237 -65.69415 167.453869 2.739397 23.645175 173.196747 1.863809 10.386423 -166.179765 17.432731 17.957495 64.838322 -28.966283 -8.651392 -38.958521 -1.277247 0.080996 -7.256736 26.823117 4.817727 20.010618 23.909671 -68.641058 4.373694 -40.881514 -50.434223 -74.234294 -166.717625 -4.086373 -70.044604 -27.515845 -22.077711 -5.422029 -151.470571 -69.586094 92.835027 -2.296997 38.621971 52.682753 -130.574989 71.293959 93.828373 -13.80097 6.616914 58.43949 3.912845 -24.675358 -16.489322 -7.218201 46.108725 -28.831381 -99.796225 8.954786 -175.929969 -101.960031 11.95263 -170.516676 -151.599061 32.046489 179.299492 -148.598894 -65.070302 168.838408 12.233996 -44.022359 16.309249 -71.545041 12.770444 -0.487814 -159.998107 -2.446327 -35.376222 -161.361088 26.475876 -150.279843 -176.023447 19.226664 -91.726771 107.62297 -4.707911 -28.782334 28.49337 57.696908 -36.977601 -5.165554 51.435586 93.447034 -158.662671 5.24306 149.579763 2.156504 42.31516 113.326254 -115.932705 11.336618 150.197405 120.309459 29.420871 -61.453762 -13.437555 -40.51297 164.532262 -177.828959 29.798732 -76.614524 5.538386 6.85975 2.959526 -45.34526 -27.773204 114.7209 51.575267 -42.359383 -106.176342 83.349261 -44.693471 -9.607454 11.857829 15.26325 -38.574906 72.637776 -15.575406 85.201248 40.25965 64.224565 0.782704 -79.316788 24.508934 3.500294
9.512 59.9158 0.7477 -175.554305 -67.620842 -179.29244 -3.315148 22.082247 1.119371 -0.461328 -17.95548 16.992227 23.394634 9.597487 102.759163 -17.435452 23.064214 -85.179517 1.160601 0.415286 39.375315 7.13203 2.09841 32.753617 -150.755575 -14.261981 169.654903 148.764712 -2.84265 -169.489826 75.67297 39.007709 57.285481 -62.344958 45.622466 25.924151 3.962544 12.644233 9.465614 17.792326 -40.178689 16.286315 -14.923821 -37.803892 -0.09347 -41.851029 -7.423467 167.512343 37.046409 21.218886 -21.280703 -42.751277 -59.595302 -34.715327 57.258814 -27.210329 18.291576 -164.753827 63.248039 108.003858 -61.863188 44.291652 116.066011 -141.747111 62.856867 -78.030941 5.317447 -1.273332 1.288992 99.397782 -4.369701 -144.005968 -175.697856 -22.116416 79.357586 -3.949611 15.979093 -2.029886 158.123553 45.674389 -90.581019 134.659288 16.199304 -67.060107 177.830091 -52.158413 -82.580754 167.829174 5.140764 -68.017029 104.24194 -60.165321 95.379964 -89.43979 42.776679 65.526434 86.081021 2.415474 47.957746 -138.15786 -44.127442 69.529082 -101.027508 64.152822 -179.808287 -69.201416 -13.219981 -84.278403 -54.280788 31.414682 -30.065346 58.118109 -32.744449 71.405048 58.448636 48.082266 163.030546 -85.982825 83.482716 176.315878 15.558989 0.622587 -21.14864 55.571489 -35.078292 120.889556 71.492191 23.396184 -23.670204 31.629565 -54.249398 -64.604956
7.557600000000001 58.63699999999999 0.7609 -172.912948 -61.625676 175.076418 0.785029 26.493948 -95.955802 20.167649 -1.463426 120.215234 18.876208 16.439402 127.0491 -13.321188 32.219773 -111.993791 47.395184 21.67192 47.123611 2.277624 1.12781 52.681889 -152.683756 3.033057 168.494228 -49.248469 37.09739 10.730798 -174.746829 -5.253749 -78.356156 -17.797468 -6.432616 -8.977619 -174.187262 -36.326931 101.33467 -142.60078 -32.903496 111.194051 -34.16823 9.626004 5.680818 44.853321 -55.151025 -144.967014 35.447337 -85.596763 4.180698 177.636333 24.555189 136.704887 -94.169812 15.86147 142.799753 -85.866417 -28.187417 -166.351632 -80.055007 62.352179 113.06769 -7.820602 -29.733298 -64.583902 165.354391 -2.850897 -158.706842 -72.795892 69.930635 115.263042 -179.975785 -61.552277 -35.127726 -165.184291 -4.816822 -133.638811 121.996765 37.382179 -58.526613 20.106375 -8.836256 -30.307484 -114.368457 -45.237441 -86.354496 -162.910626 -26.504914 150.656698 163.401731 -1.218099 -155.944272 -179.945963 7.276212 167.119252 24.633681 2.722733 9.159479 -123.682298 -2.366938 -48.53654 -125.173448 17.051638 125.429039 -90.167847 34.282988 169.61606 -99.326953 42.146408 -31.798312 93.895038 -4.371617 45.166375 50.778895 61.11439 66.779967 -61.310953 -22.203643 -151.250141 103.064201 28.643174 44.653354 -81.777825 -15.67633 46.961891 77.265238 28.52881 37.028993 -36.304392 -27.153867 -143.616628
